<?xml version="1.0" encoding="utf-8"?>
<svg xmlns="http://www.w3.org/2000/svg" height="512pt" version="1.1" viewBox="0 0 512 512" width="512pt">
<path d="M 0.00 0.00 L 512.00 0.00 L 512.00 512.00 L 0.00 512.00 L 0.00 0.00 Z" fill="transparent" opacity="1.00" stroke="transparent" stroke-width="0.25"/>
<path d="M 251.58 180.82 C 260.76 177.73 271.49 184.34 272.62 193.98 C 274.31 202.62 267.81 211.70 259.13 212.93 C 249.70 214.98 239.74 206.58 240.11 196.96 C 239.85 189.82 244.73 182.89 251.58 180.82 Z" fill="#213644" opacity="1.00" stroke="#213644" stroke-width="0.25"/>
<path d="M 244.50 196.96 C 244.27 191.01 249.08 185.35 255.01 184.67 C 258.02 184.09 260.82 185.51 263.51 186.63 C 265.73 189.00 268.09 191.62 268.30 195.04 C 269.31 201.61 263.89 208.91 256.98 208.71 C 250.59 209.06 244.42 203.42 244.50 196.96 Z" fill="#ffffff" opacity="1.00" stroke="#ffffff" stroke-width="0.25"/>
<path d="M 254.28 219.74 C 254.36 218.34 254.43 216.94 254.51 215.54 C 256.04 215.53 257.57 215.56 259.11 215.62 C 259.20 217.08 259.32 218.54 259.45 220.00 C 264.82 224.78 269.78 230.00 274.95 235.00 C 282.30 242.02 286.60 252.22 286.52 262.36 C 285.49 262.43 283.44 262.57 282.41 262.63 C 281.17 254.52 279.04 245.99 273.09 239.96 C 268.53 235.57 264.29 230.85 259.51 226.70 C 258.99 241.00 259.36 255.73 264.78 269.19 C 271.65 284.70 278.37 300.28 285.32 315.77 C 286.12 317.52 286.68 319.36 287.19 321.22 C 285.78 321.73 284.37 322.22 282.96 322.70 C 275.49 305.90 268.23 289.02 260.74 272.24 C 259.28 268.92 258.07 265.51 257.00 262.06 C 255.76 265.77 254.53 269.50 252.94 273.08 C 246.74 287.48 240.48 301.85 234.09 316.17 C 233.15 318.30 232.38 320.56 230.99 322.46 C 229.49 322.71 228.23 322.27 227.21 321.12 C 227.34 319.78 227.69 318.50 228.27 317.28 C 233.06 306.75 237.61 296.11 242.29 285.54 C 245.70 277.10 250.09 268.98 252.02 260.02 C 254.84 248.85 254.49 237.27 254.40 225.85 C 246.95 233.56 237.56 240.19 233.73 250.61 C 232.14 254.35 231.65 258.41 231.16 262.42 C 229.57 262.25 227.37 263.16 226.66 261.16 C 227.30 251.32 231.51 241.55 238.70 234.72 C 243.84 229.67 248.65 224.26 254.28 219.74 Z" fill="#213644" opacity="1.00" stroke="#213644" stroke-width="0.25"/>
</svg>